<?xml version="1.0" standalone="no"?>
<!DOCTYPE svg PUBLIC "-//W3C//DTD SVG 20010904//EN"
 "http://www.w3.org/TR/2001/REC-SVG-20010904/DTD/svg10.dtd">
<svg version="1.0" xmlns="http://www.w3.org/2000/svg"
 width="48.000000pt" height="64.000000pt" viewBox="0 0 48.000000 64.000000"
 preserveAspectRatio="xMidYMid meet">

<g transform="translate(0.000000,64.000000) scale(0.100000,-0.100000)"
fill="#000000" stroke="none">
<path d="M0 320 l0 -320 240 0 240 0 0 320 0 320 -240 0 -240 0 0 -320z m366
174 c63 -39 104 -113 104 -189 0 -117 -89 -213 -206 -223 -206 -17 -323 225
-181 375 51 54 103 74 179 70 41 -2 69 -11 104 -33z"/>
<path d="M153 415 c2 -27 7 -58 11 -67 7 -16 3 -18 -32 -18 -59 0 -59 -14 1
-33 72 -23 140 -68 166 -111 27 -43 58 -48 67 -11 9 35 -3 73 -32 102 l-25 25
21 32 c23 38 41 146 18 112 -31 -46 -82 -96 -97 -96 -20 0 -49 29 -81 80 l-21
35 4 -50z"/>
</g>
</svg>
